<?xml version="1.0" encoding="UTF-8"?>
<svg xmlns="http://www.w3.org/2000/svg" xmlns:xlink="http://www.w3.org/1999/xlink" width="24pt" height="24pt" viewBox="0 0 24 24" version="1.1">
<g id="surface7188759">
<path style=" stroke:none;fill-rule:nonzero;fill:rgb(35.686275%,9.019608%,28.235294%);fill-opacity:1;" d="M 12 24 C 5.371094 24 0 18.628906 0 12 C 0 5.371094 5.371094 0 12 0 C 18.628906 0 24 5.371094 24 12 C 24 18.628906 18.628906 24 12 24 Z M 12 24 "/>
<path style=" stroke:none;fill-rule:nonzero;fill:rgb(100%,100%,100%);fill-opacity:1;" d="M 6.398438 4.800781 C 5.515625 4.800781 4.800781 5.515625 4.800781 6.398438 L 4.800781 17.601562 C 4.800781 18.484375 5.515625 19.199219 6.398438 19.199219 L 17.601562 19.199219 C 18.484375 19.199219 19.199219 18.484375 19.199219 17.601562 L 19.199219 6.398438 C 19.199219 5.515625 18.484375 4.800781 17.601562 4.800781 Z M 6.398438 6.398438 L 17.601562 6.398438 L 17.601562 17.601562 L 6.398438 17.601562 Z M 8.625 7.453125 C 7.9375 7.453125 7.527344 7.867188 7.527344 8.414062 C 7.527344 8.960938 7.9375 9.375 8.554688 9.375 C 9.242188 9.375 9.652344 8.960938 9.652344 8.414062 C 9.652344 7.867188 9.242188 7.453125 8.625 7.453125 Z M 7.582031 10.398438 L 7.582031 16 L 9.601562 16 L 9.601562 10.398438 Z M 11.265625 10.398438 L 11.265625 16 L 13.285156 16 L 13.285156 12.9375 C 13.285156 12.027344 13.933594 11.898438 14.128906 11.898438 C 14.324219 11.898438 14.847656 12.09375 14.847656 12.9375 L 14.847656 16 L 16.800781 16 L 16.800781 12.9375 C 16.800781 11.179688 16.019531 10.398438 15.042969 10.398438 C 14.066406 10.398438 13.542969 10.726562 13.285156 11.179688 L 13.285156 10.398438 Z M 11.265625 10.398438 "/>
</g>
</svg>
